<?xml version="1.0" standalone="no"?>
<!DOCTYPE svg PUBLIC "-//W3C//DTD SVG 20010904//EN"
 "http://www.w3.org/TR/2001/REC-SVG-20010904/DTD/svg10.dtd">
<svg version="1.0" xmlns="http://www.w3.org/2000/svg"
 width="793.000000pt" height="682.000000pt" viewBox="0 0 793.000000 682.000000"
 preserveAspectRatio="xMidYMid meet">

<g transform="translate(0.000000,682.000000) scale(0.100000,-0.100000)"
fill="#000000" stroke="none">
<path d="M4250 6525 c-8 -2 -55 -9 -105 -15 -279 -37 -582 -143 -838 -293
-227 -134 -225 -132 -1597 -1503 l-1295 -1294 90 -90 c104 -105 158 -143 252
-175 138 -48 271 -40 412 26 61 29 114 80 671 634 616 613 706 695 938 853
714 486 1543 665 2352 506 71 -14 84 -30 51 -63 -38 -38 -214 -73 -426 -86
-346 -21 -512 -54 -680 -138 -180 -89 -329 -248 -391 -417 -23 -66 -45 -160
-38 -171 3 -5 607 -9 1507 -9 1625 0 1537 -3 1647 53 65 33 144 116 179 190
58 122 59 251 1 373 -30 64 -67 104 -524 560 -270 270 -526 519 -569 554 -422
339 -911 512 -1438 509 -101 -1 -191 -3 -199 -4z"/>
<path d="M7235 4083 c-165 -30 -283 -147 -336 -333 -16 -53 -19 -100 -19 -255
0 -260 -22 -385 -101 -590 -45 -116 -138 -279 -217 -378 -188 -235 -511 -461
-791 -551 -275 -89 -644 -140 -761 -105 -64 19 -131 78 -165 144 -27 52 -30
68 -30 149 0 82 3 96 30 144 33 61 87 108 148 129 47 17 161 27 468 43 296 15
470 52 666 140 269 122 468 369 502 625 33 242 -104 493 -329 604 -106 51
-176 65 -305 58 -119 -7 -198 -34 -301 -105 -152 -104 -253 -295 -254 -474 l0
-58 -552 0 c-598 0 -631 -2 -798 -55 -47 -15 -119 -44 -161 -65 -176 -87 -197
-105 -952 -859 l-717 -716 342 -343 c189 -189 386 -378 438 -420 314 -255 684
-417 1100 -483 113 -19 528 -19 630 -1 445 78 780 226 1110 488 110 88 1096
1073 1184 1184 437 550 600 1238 450 1907 -14 62 -31 130 -38 150 l-13 38 -82
0 c-45 0 -111 -5 -146 -12z"/>
<path d="M2791 3900 c-24 -5 -81 -28 -128 -50 -307 -149 -424 -525 -258 -828
l36 -65 -391 -392 -391 -391 89 -86 c98 -94 164 -134 274 -163 132 -35 295 -5
418 77 74 49 947 928 989 995 81 129 112 314 76 453 -51 199 -176 343 -370
423 -61 25 -85 30 -185 33 -63 2 -135 -1 -159 -6z"/>
<path d="M1503 3222 c-244 -244 -443 -446 -443 -449 0 -15 166 -158 212 -183
67 -36 193 -70 257 -70 74 1 168 25 248 65 59 29 96 58 172 134 157 159 221
296 221 478 0 109 -18 188 -62 280 -35 70 -132 194 -151 191 -6 0 -211 -201
-454 -446z"/>
</g>
</svg>
